<?xml version="1.0" standalone="no"?>
<svg width="688" height="600" viewBox="0 0 688 600" xmlns="http://www.w3.org/2000/svg">
<title>Shield of the Trinity diagram (English captions) within hexagon</title>
<g transform="translate(344,300)scale(0.3725,-0.3725)">
<path fill="rgb(195,225,255)" fill-opacity="0.6" d="M900,0L450,779.4229H-450L-900,0L-450,-779.4229H450Z"/>
<g fill="rgb(255,255,255)" stroke="rgb(0,0,0)" stroke-width="27" stroke-linejoin="round">
<path fill="rgb(255,217,217)" stroke="none" d="M-450,-779.4229H450L337.5,-584.567H-337.5Z
M900,0L450,779.4229L337.5,584.567L675,0Z
M-450,779.4229L-900,0H-675L-337.5,584.567Z"/>
<path fill="none" stroke="rgb(236,0,0)" d="M-450,-779.4229H450M337.5,-584.567H-337.5
M900,0L450,779.4229M337.5,584.567L675,0
M-450,779.4229L-900,0M-675,0L-337.5,584.567"/>
<rect x="-97.4279" y="56.25" width="194.8558" height="675"/>
<path d="M-97.4279,56.25L-681.995,-281.25L-584.567,-450L0,-112.5Z
M0,-112.5L584.567,-450L681.995,-281.25L97.4279,56.25Z"/>
<path d="M-450,779.4229H450L300,519.6152H-300Z
M-450,-779.4229L-900,0H-600L-300,-519.6152Z
M900,0L450,-779.4229L300,-519.6152L600,0Z
M7.7942,-436.5L381.9172,211.5L374.123,225H-374.123L-381.9172,211.5-7.7942,-436.5Z"/>
</g>
<g fill="rgb(236,0,0)">
<path d="M-210.08-656.21L-211.94-655.47
C-222.5-659.34-233.26-661.93-244.23-663.03V-668.2H-236.57
C-228.29-668.2-227.46-669.49-227.46-681.67V-723.18
C-227.46-734.8-228.08-736.1-235.12-736.46L-244.64-737.01V-742.54
C-223.94-741.99-223.94-741.99-218.76-741.99
C-213.58-741.99-213.58-741.99-192.88-742.54V-737.01L-202.4-736.46
C-209.44-736.09-210.06-734.8-210.06-723.18Z
M-219.61-615.25
C-225.82-615.25-231.2-620.05-231.2-625.58
C-231.2-630.93-225.82-635.73-219.81-635.73
C-213.81-635.73-208.22-630.93-208.22-625.58
C-208.22-620.41-213.81-615.25-219.61-615.25Z"/>
<path d="M-180.51-715.62
C-180.51-728.35-181.13-733.89-182.79-741.27
C-172.03-744.41-163.95-745.7-154.43-745.7
C-127.31-745.7-108.06-732.78-108.06-714.7
C-108.06-708.98-109.92-704.74-113.86-701.05
C-119.24-696.44-126.07-694.22-144.29-691.09
C-161.26-688.14-166.85-684.45-166.85-675.96
C-166.85-666.73-159.61-661.57-146.98-661.57
C-133.11-661.57-122.55-668.03-122.55-676.7V-680.94H-116.75
C-116.54-670.24-116.34-665.81-115.71-660.09
C-126.68-656.77-134.13-655.48-142.62-655.48
C-166.63-655.48-181.33-665.63-181.33-682.23
C-181.33-691.09-176.78-697.36-167.25-701.23
C-161.66-703.44-150.69-706.4-136.61-709.16
C-127.3-711-123.36-714.88-123.36-721.89
C-123.36-731.85-133.71-738.86-148.41-738.86
C-163.52-738.86-174.28-732.4-174.28-723.18V-715.62Z"/>
<path d="M34.87-742.55
C47.5-742,47.7-742,51.22-742
C54.12-742,54.12-742,68.4-742.55V-737.02L59.91-736.47
C52.87-736.1,52.25-734.99,52.25-723.19V-687.58
C52.25-665.99,40.86-655.48,17.68-655.48
C10.02-655.48,5.67-656.77,1.33-660.09L-14.4-672.27V-656.22L-16.26-655.48
C-26.82-659.35-37.58-661.94-48.55-663.04V-668.21H-40.89
C-32.61-668.21-31.78-669.5-31.78-681.68V-723.19
C-31.78-734.81-32.4-736.11-39.44-736.47L-48.75-737.02V-742.55
C-34.67-742.18-29.08-742-23.08-742
C-17.08-742-11.49-742.18,2.59-742.55V-737.02L-6.72-736.47
C-13.76-736.1-14.38-734.81-14.38-723.19V-684.08
C-14.38-675.78-0.72-666.74,11.91-666.74
C25.78-666.74,34.89-675.97,34.89-690.17Z"/>
<path d="M128.75-655.47
C98.53-655.47,77.62-674.47,77.62-701.96
C77.62-727.97,96.04-745.69,122.75-745.69
C154.63-745.69,177.4-725.95,177.4-698.27
C177.4-673.36,157.11-655.47,128.75-655.47Z
M125.03-661.56
C144.07-661.56,158.15-680.01,158.15-705.1
C158.15-726.32,147.59-739.6,130.83-739.6
C110.54-739.6,96.88-721.89,96.88-695.69
C96.88-673.55,106.82-661.56,125.03-661.56Z"/>
<path d="M204.29-671.52V-724.66
C204.29-738.31,211.12-744.22,227.06-744.22
C231.82-744.22,236.79-743.3,238.03-742.01L247.97-732.23L245.28-729.09
C240.1-731.67,237-732.6,233.07-732.6
C225-732.6,221.68-728.91,221.68-719.87V-671.53H248.18L250.04-661.57L221.68-662.68V-655.67
C221.68-647.92,222.3-641.28,223.96-629.47L221.48-627.44
C216.51-630.21,210.3-632.61,203.89-634.45
C204.51-639.98,204.72-643.49,204.72-649.03V-661.95L188.57-668.41V-672.28Z"/>
<path d="M-723.84,167.6L-725.41,166.36
C-727.33,155.28-730.48,144.67-735,134.61L-730.53,132.03L-726.7,138.66
C-722.56,145.83-721.03,145.9-710.48,139.81L-674.53,119.05
C-664.46,113.24-663.66,112.05-666.86,105.78L-671.14,97.26L-666.35,94.49
C-656.48,112.69-656.48,112.69-653.89,117.18
C-651.3,121.66-651.3,121.66-640.47,139.31L-645.26,142.08L-650.5,134.11
C-654.34,128.2-655.77,128.31-665.83,134.12Z
M-764.07,179.83
C-767.17,174.45-765.71,167.39-760.92,164.63
C-756.29,161.95-749.44,164.22-746.44,169.42
C-743.44,174.62-744.8,181.86-749.43,184.53
C-753.9,187.11-761.17,184.86-764.07,179.84Z"/>
<path d="M-657.61,164.54
C-646.59,158.17-642.1,154.87-636.54,149.75
C-628.44,157.5-623.29,163.85-618.53,172.1
C-604.97,195.58-606.53,218.71-622.19,227.75
C-627.14,230.61-631.75,231.12-636.91,229.56
C-643.6,227.21-648.93,222.4-660.75,208.19
C-671.79,194.97-677.78,191.97-685.13,196.21
C-693.12,200.82-693.97,209.68-687.66,220.62
C-680.73,232.63-669.85,238.54-662.34,234.21L-658.66,232.09L-655.76,237.11
C-664.92,242.64-668.66,245.03-673.3,248.43
C-681.66,240.59-686.51,234.78-690.75,227.43
C-702.76,206.64-701.32,188.83-686.94,180.53
C-679.27,176.1-671.56,176.91-663.44,183.22
C-658.73,186.95-650.69,194.98-641.25,205.78
C-634.99,212.92-629.67,214.39-623.6,210.89
C-614.97,205.91-614.08,193.44-621.42,180.71
C-628.98,167.62-639.95,161.53-647.94,166.14L-654.49,169.92Z"/>
<path d="M-527.09,337.22
C-521.26,348.43-521.15,348.61-519.39,351.66
C-517.94,354.17-517.94,354.17-510.32,366.26L-515.11,369.03L-519.83,361.96
C-523.67,356.05-524.94,356.07-535.16,361.97L-566,379.77
C-584.69,390.56-599.49,385.96-611.09,365.88
C-614.92,359.25-615.97,354.84-615.27,349.41L-612.59,329.7L-626.49,337.73L-628.06,336.49
C-629.98,325.41-633.13,314.8-637.65,304.74L-633.18,302.16L-629.35,308.79
C-625.21,315.96-623.68,316.03-613.13,309.94L-577.18,289.18
C-567.11,283.37-566.31,282.18-569.51,275.91L-573.69,267.57L-568.9,264.8
C-562.18,277.17-559.55,282.11-556.55,287.31
C-553.55,292.51-550.59,297.26-543.24,309.26L-548.03,312.03L-553.17,304.24
C-557.01,298.33-558.44,298.44-568.5,304.25L-602.37,323.81
C-609.56,327.96-610.56,344.31-604.24,355.25
C-597.31,367.26-584.76,370.54-572.46,363.43Z"/>
<path d="M-555.06,462.28
C-570.17,436.11-564.17,408.5-540.36,394.75
C-517.83,381.74-493.28,388.84-479.93,411.97
C-463.99,439.58-469.7,469.17-493.67,483
C-515.24,495.45-540.88,486.83-555.06,462.27Z
M-551.65,456.01
C-542.13,472.5-519.11,475.47-497.38,462.92
C-479.01,452.31-472.78,436.53-481.16,422.01
C-491.3,404.44-513.47,401.47-536.16,414.57
C-555.33,425.64-560.75,440.24-551.64,456.02Z"/>
<path d="M-503.89,519.81L-457.87,493.24
C-446.05,486.41-437.52,489.38-429.55,503.18
C-427.17,507.3-425.48,512.07-425.98,513.79L-429.48,527.28L-433.54,526.52
C-433.89,520.75-434.64,517.6-436.61,514.19
C-440.65,507.2-445.5,506.18-453.33,510.7L-495.19,534.87L-481.94,557.82L-489.64,564.41L-502.86,539.3L-508.93,542.81
C-515.64,546.68-521.08,550.54-530.48,557.88L-533.48,556.74
C-533.57,551.05-534.59,544.48-536.21,538
C-531.11,535.77-527.97,534.2-523.17,531.43L-511.99,524.97L-514.47,507.76L-511.11,505.82Z"/>
<path d="M511.76,535.19L511.47,537.17
C502.84,544.38,495.22,552.41,488.77,561.35L484.3,558.77L488.13,552.14
C492.27,544.97,491.57,543.61,481.02,537.52L445.07,516.76
C435,510.95,433.57,510.84,429.74,516.75L424.5,524.72L419.71,521.95
C430.54,504.3,430.54,504.3,433.13,499.82
C435.72,495.34,435.72,495.34,445.59,477.13L450.38,479.9L446.1,488.42
C442.9,494.7,443.71,495.88,453.77,501.69Z
M542.47,563.92
C539.37,569.3,532.52,571.56,527.73,568.79
C523.1,566.11,521.63,559.06,524.63,553.86
C527.63,548.66,534.58,546.22,539.21,548.89
C543.68,551.47,545.36,558.9,542.47,563.92Z"/>
<path d="M476.09,479.84
C465.07,473.47,459.96,471.25,452.74,468.99
C455.41,458.1,458.32,450.46,463.08,442.22
C476.64,418.74,497.45,408.52,513.11,417.56
C518.06,420.42,520.81,424.15,522.04,429.41
C523.34,436.38,521.85,443.4,515.45,460.74
C509.52,476.92,509.92,483.6,517.27,487.84
C525.26,492.45,533.36,488.76,539.67,477.83
C546.6,465.82,546.29,453.45,538.78,449.11L535.1,446.99L538,441.97
C547.37,447.14,551.31,449.18,556.57,451.5
C553.96,462.66,551.35,469.76,547.11,477.11
C535.1,497.9,518.97,505.56,504.59,497.26
C496.92,492.83,493.77,485.75,495.17,475.57
C496.05,469.62,498.98,458.65,503.62,445.07
C506.68,436.08,505.29,430.74,499.22,427.23
C490.59,422.25,479.35,427.71,472,440.43
C464.44,453.52,464.65,466.07,472.64,470.68L479.19,474.46Z"/>
<path d="M559.96,279.22
C566.75,268.56,566.86,268.38,568.62,265.33
C570.07,262.82,570.07,262.82,576.73,250.17L581.52,252.94L577.76,260.57
C574.56,266.85,575.21,267.94,585.43,273.84L616.27,291.64
C634.96,302.43,638.38,317.55,626.79,337.63
C622.96,344.26,619.67,347.38,614.62,349.49L596.21,357.03L610.11,365.06L609.82,367.04
C601.19,374.25,593.57,382.28,587.12,391.22L582.65,388.64L586.48,382.01
C590.62,374.84,589.92,373.48,579.37,367.39L543.42,346.63
C533.35,340.82,531.92,340.71,528.09,346.62L522.95,354.41L518.16,351.64
C525.52,339.63,528.47,334.89,531.47,329.69
C534.47,324.49,537.11,319.56,543.82,307.18L548.61,309.95L544.43,318.29
C541.23,324.57,542.04,325.75,552.1,331.56L585.97,351.12
C593.16,355.27,607.82,347.96,614.13,337.02
C621.06,325.01,617.63,312.51,605.33,305.41Z"/>
<path d="M682.81,242.25
C667.7,268.42,640.79,277.03,616.98,263.28
C594.45,250.27,588.32,225.46,601.67,202.34
C617.61,174.73,646.09,164.88,670.06,178.72
C691.63,191.17,696.99,217.69,682.81,242.25Z
M675.68,242.43
C685.2,225.94,676.26,204.52,654.53,191.98
C636.16,181.37,619.37,183.87,610.99,198.39
C600.85,215.96,609.35,236.65,632.04,249.74
C651.21,260.81,666.57,258.2,675.68,242.43Z"/>
<path d="M706.18,168.67L660.16,142.1
C648.34,135.27,646.64,126.41,654.61,112.6
C656.99,108.48,660.27,104.64,662.01,104.21L675.45,100.49L676.82,104.39
C672,107.58,669.64,109.81,667.68,113.21
C663.64,120.2,665.18,124.91,673.01,129.43L714.87,153.6L728.12,130.65L737.68,134.02L722.54,158.03L728.61,161.54
C735.32,165.41,741.38,168.2,752.44,172.67L752.96,175.84
C748.08,178.76,742.9,182.94,738.09,187.57
C733.61,184.26,730.67,182.33,725.88,179.57L714.7,173.11L701.03,183.86L697.67,181.92Z"/>
</g>
<path d="M-252,651.05
C-245.93,651.51-239.42,652-229.66,652
C-213.34,652-207.39,651.25-203.42,648.98L-201.66,643.24L-200.56,629.7H-193.95
C-194.61,651.04-194.61,651.04-194.61,655.17
C-194.61,658.84-194.61,658.84-193.95,681.79H-200.56L-201.66,669.86
C-201.88,667.79-202.54,665.73-203.42,663.89
C-207.39,662.05-213.56,660.99-228.12,660.99
C-237.24,660.99-244.62,660.97-252,661.68V723.33
C-245.49,724.94-241.58,724.99-228.78,724.99
C-218.2,724.99-205.85,723.69-199.01,721.95
C-193.72,720.57-193.06,719.43-193.06,714.15V699.23H-185.34
C-185.34,712.68-184.24,723.44-181.81,733.3
C-192.61,734.3-199.23,733.99-208.71,733.99L-232.3,733.76
C-243.1,734.11-250.82,733.3-256.33,733.3
C-262.72,733.3-262.72,734.3-295.14,734.99V727.92L-284.56,727.23
C-274.42,726.54-272.99,724.71-272.99,706.58V603.53
C-272.99,585.4-274.12,583.56-284.56,582.88L-295.14,582.19V575.3
C-282.13,575.76-274.41,575.99-262.95,575.99
C-251.48,575.99-243.55,575.45-230.54,574.99V582.19L-241.12,582.88
C-251.26,583.57-251.99,585.4-251.99,603.53Z"/>
<path d="M-110,594.82L-110.66,575.31
C-96.33,576-96.33,576-93.46,576
C-92.36,576-86.85,575.46-77.14,575V582L-85.74,582.66
C-91.03,582.89-92,584.73-92,595.97V637.97
C-92,671.48-101.24,684.01-126.76,684.01
C-136.24,684.01-145.06,681.37-153.44,675.84L-165.18,668.5V653.58L-159.39,651.97L-156.52,659.08
C-151.89,669.87-149.68,672-139.54,672
C-118.81,672-110.21,663.36-109.55,642.1L-131.38,637.97
C-161.37,632.23-173.99,621.45-173.99,601.48
C-173.99,583.58-163.61,573.25-146.15,573.25
C-142.18,573.25-138.43,573.94-136.89,575.09Z
M-110,604.46
C-116.3,595.05-129.98,586.25-138.44,586.25
C-147.26,586.25-155,594.78-155,604.69
C-155,613.18-150.58,621.21-143.96,625.57
C-138.52,629.01-126.55,632.23-110,634.75Z"/>
<path d="M-54,663.67V597.57
C-54,580.59-46.54,573.24-29.14,573.24
C-24.07,573.24-18.78,574.39-17.45,575.99L-6.87,588.15L-9.74,592.05
C-15.25,588.84-18.56,587.23-22.75,587.23
C-31.35,587.23-35.01,591.95-35.01,603.52V663.65H-6.66L-4.68,676.04L-35.02,674.66V683.38
C-35.02,693.02-34.32,701.28-32.46,715.97L-35.11,718.49
C-40.4,715.05-47.02,712.06-53.85,709.77
C-53.19,702.88-53.58,698.52-53.58,691.64V675.58L-70.17,667.55V662.73Z"/>
<path d="M0.54,727.7H12.89
C16.86,727.7,18,725.18,18,718.29V599.41
C18,584.95,17.37,583.35,10.25,582.89L0.33,582.2V575.31
C15.32,575.77,21.28,576,27.67,576
C34.06,576,40.02,575.46,55.01,575V582.2L45.09,582.89
C37.59,583.35,37.01,584.96,37.01,599.41V648.06
C37.01,658.39,51.52,670,64.94,670
C79.71,670,89.01,658.38,89.01,640.49V575.31
C102.77,576,103,576,106.83,576
C109.92,576,109.92,575.69,125.13,575V582.2L116.09,582.89
C108.59,583.35,108,584.73,108,599.41V643.7
C108,670.55,95.85,684,71.1,684
C62.94,684,58.31,682.29,53.68,677.9L37,662.75V740.78L34.94,742.62
C25.24,738.72,17.96,736.88,0.54,734.13Z"/>
<path d="M221.36,592.06L218.49,594.35
C204.38,585.63,199.31,583.4,189.82,583.4
C175.49,583.4,163.58,590.12,157.41,601.46
C153.22,609.09,151.68,615.57,151.24,628.99H183.43
C198.64,628.99,208.13,629.63,223.34,631.99
C223.56,635.2,223.78,637.27,223.78,640.02
C223.78,666.41,207.46,683.99,182.77,683.99
C174.61,683.99,165.13,680.88,156.09,675.13
C138.01,664.34,130.73,650.11,130.73,626.25
C130.73,611.79,134.04,599.4,139.99,590.68
C148.81,578.52,163.58,571.4,180.12,571.4
C188.28,571.4,196.44,573.24,205.48,577.37
C211.43,579.89,216.06,582.88,216.95,584.25Z
M204.16,637.28
C192.69,636.82,187.4,637,179.46,637
C169.32,637,163.58,637.16,151.68,637.97
C151.68,648.76,152.56,653.81,155.43,659.77
C160.06,669.87,169.54,676,180.13,676
C187.41,676,193.14,673.04,197.11,666.88
C201.96,659.31,203.5,652.65,204.17,637.27Z"/>
<path d="M237.07,667.8H245.23
C254.05,667.8,255,666.19,255,651.05V599.41
C255,584.95,254.33,583.35,246.77,582.89L236.63,582.2V575.31
C252.51,575.77,258.24,576,263.75,576
C268.16,576,268.16,575.69,295.28,575V582L283.81,582.89
C273.89,583.58,273.99,584.27,273.99,599.41V638.88
C273.99,652.65,282.56,664,293.07,664
C299.68,664,304.32,660.83,307.84,653.57H312.47L314.45,681.11
C312.02,682.72,308.06,684,304.09,684
C297.48,684,290.42,680.19,285.79,674.23L273.99,659.08V682.72L271.46,683.64
C260.21,678.82,248.75,675.61,237.06,674.23Z"/>
<path d="M433.8-447.24
C423.47-441.28,417.32-436.64,407.96-428.54
C392.36-441.15,385.15-449.15,378.72-460.29
C361.29-490.48,366.97-522.95,392.49-537.68
C402.04-543.19,410.57-544.61,419.23-541.77
C429.25-538.37,437.75-530.85,451.63-512.65
C462.78-498.28,469.02-492.43,476.54-489.75
C483.67-486.84,490.73-487.67,498.13-491.95
C515.67-502.07,519.56-524.59,507.39-545.66
C498.03-561.87,481.3-573.29,472.73-569.69L458.74-563.77L455-570.25
C458.62-572.07,461.74-573.87,462.91-574.55
C471.87-579.73,475.93-582.61,483.99-588.88
C495.53-580.14,504.85-569.85,511.64-558.1
C532-522.84,526.28-485.49,498.03-469.18
C488.87-463.89,480.92-462.81,472.58-465.56
C462.05-468.94,454.61-475.99,438.58-497
C421.19-519.92,409.73-524.92,394.72-516.26
C378.35-506.81,374.03-487.29,384.33-469.46
C388.89-461.56,394.78-454.96,400.86-451.17
C408.03-446.4,412.24-445.85,418.25-448.51L430.06-453.71Z"/>
<path d="M439.23-423.97L443.56-416.47
C448.24-408.36,450.07-408.34,462.93-415.77L560.94-472.36
C573.22-479.45,574.23-480.84,570.64-487.96L565.84-497.62L571.69-500.99
C582.81-480.39,582.81-480.39,585.73-475.32
C588.66-470.25,588.66-470.25,600.94-450.33L595.09-446.95L589.12-455.93
C584.75-462.6,583.04-462.42,570.76-455.33L533.93-434.07
C540.95-430.02,546.06-424.32,551.32-415.2
C554.71-409.32,556.59-403.38,556.51-399.01L555.43-367.58
C555.04-356.55,540.47-335.44,528-328.24
C506.37-315.75,478.65-324.61,465.08-348.12
C460.75-355.62,458.49-364.04,459.54-368.97L464.56-394.02L445.85-383.22L444.02-384.59
C442.15-397.29,438.79-409.4,433.76-420.82Z
M476.85-401.11
C474.12-399.54,472.56-397.28,470.77-392.74
C466.95-382.7,468.05-372.25,473.9-362.12
C484.9-343.07,504.78-338.34,525.04-350.04
C546.86-362.64,555.2-385.55,544.67-403.79
C538.23-414.94,529.93-421.22,517.38-424.51Z"/>
<path d="M547.39-276.59L545.56-277.96
C543.69-290.66,540.33-302.77,535.3-314.19L540.76-317.34L545.09-309.84
C549.77-301.73,551.6-301.71,564.46-309.14L608.3-334.45
C620.58-341.54,621.59-342.93,618-350.05L613.2-359.71L619.05-363.08
C630.17-342.48,630.17-342.48,633.09-337.41
C636.02-332.34,636.02-332.34,648.3-312.42L642.45-309.04L636.48-318.02
C632.11-324.69,630.4-324.51,618.12-317.42Z
M498.75-260.94
C495.24-267.02,497.26-275.21,503.11-278.59
C508.76-281.85,516.87-279.51,520.26-273.63
C523.65-267.75,521.75-259.36,516.09-256.09
C510.63-252.94,502.02-255.26,498.74-260.94Z"/>
<path d="M574.75-258.34L579.08-250.84
C583.76-242.73,585.59-242.71,598.45-250.14L642.29-275.45
C654.57-282.54,655.58-283.93,651.99-291.05L647.19-300.71L653.04-304.08
C661.07-289.26,663.92-283.88,666.85-278.82
C669.19-274.77,669.19-274.77,684.17-250.18L678.32-246.8L671.65-257
C665.8-265.78,664.98-265.85,652.12-258.42L618.6-239.07
C606.91-232.32,601.85-218.59,607.58-208.66
C611.09-202.58,616.28-199.9,624.38-200.26L626.84-196L604.51-180.68
C601.86-182.12,598.97-185.32,596.87-188.97
C593.36-195.05,592.73-203.33,595.15-210.4L601.46-229.17L581.39-217.58L579.56-218.95
C577.69-231.65,574.33-243.76,569.3-255.18Z"/>
<path d="M629.39-134.59L627.56-135.96
C625.69-148.66,622.33-160.77,617.3-172.19L622.76-175.34L627.09-167.84
C631.77-159.73,633.6-159.71,646.46-167.14L690.3-192.45
C702.58-199.54,703.59-200.93,700-208.05L695.2-217.71L701.05-221.08
C712.17-200.48,712.17-200.48,715.09-195.41
C718.02-190.34,718.02-190.34,730.3-170.42L724.45-167.04L718.48-176.02
C714.11-182.69,712.4-182.51,700.12-175.42Z
M580.75-118.94
C577.24-125.02,579.26-133.21,585.11-136.59
C590.76-139.85,598.87-137.51,602.26-131.63
C605.65-125.75,603.75-117.36,598.09-114.09
C592.63-110.94,584.02-113.26,580.74-118.94Z"/>
<path d="M667.03-107.17L723.15-139.57
C737.57-147.89,747.67-144.81,756.67-129.2
C759.36-124.54,761.19-119.11,760.53-117.11L755.82-101.42L750.99-102.14
C750.79-108.78,750.01-112.38,747.79-116.23
C743.23-124.13,737.46-125.13,727.91-119.61L676.86-90.14L691.84-64.2L682.37-56.3L667.51-84.74L660.11-80.47
C651.93-75.74,645.26-71.09,633.73-62.27L630.18-63.46
C630.29-70.01,629.32-77.55,627.64-84.96
C633.84-87.73,637.66-89.66,643.5-93.04L657.14-100.91L654.83-120.65L658.92-123.01Z"/>
<path d="M-567.11-233.04
C-556.37-226.84-549.01-223.67-536.9-219.38
C-539.77-199.42-543.01-189.14-549.45-177.99
C-566.88-147.8-598.57-136.91-625.12-152.23
C-635.05-157.96-640.82-164.81-642.9-173.85
C-645.2-184.37-643.06-195.56-634.35-216.74
C-627.57-233.63-625.7-242.01-627.32-249.97
C-628.53-257.7-633.01-263.52-640.71-267.97
C-658.95-278.5-680.9-270.91-693.06-249.83
C-702.42-233.62-703.64-213.25-695.92-207.44L-683.28-197.98L-687.02-191.5
C-690.55-193.81-693.79-195.68-695.01-196.38
C-704.33-201.76-709.02-203.93-718.84-207.98
C-717.24-222.46-713.09-235.73-706.3-247.48
C-685.94-282.74-649.92-295.99-620.54-279.03
C-611.02-273.53-605.85-267.04-603.86-258.32
C-601.27-247.37-603.55-237.33-613.61-212.88
C-624.64-186.28-622.98-173.71-607.38-164.7
C-590.36-154.87-570.83-160.62-560.53-178.45
C-555.97-186.35-553.26-194.79-553.14-202.01
C-552.72-210.69-554.48-214.67-560-218.67L-570.85-226.55Z"/>
<path d="M-535.31-314.67
C-552.39-285.08-585.08-276.67-615.28-294.1
C-643.85-310.6-652.89-339.86-637.8-366.01
C-619.78-397.22-585.23-406.99-554.83-389.44
C-527.47-373.65-519.28-342.44-535.31-314.67Z
M-544.11-314.88
C-533.35-333.52-545.65-359-573.22-374.92
C-596.52-388.38-617.08-386.46-626.56-370.05
C-638.03-350.19-626.29-325.58-597.52-308.97
C-573.2-294.93-554.41-297.05-544.12-314.89Z"/>
<path d="M-551.64-506.44
C-543.9-518.45-543.78-518.65-541.79-522.1
C-540.15-524.94-540.15-524.94-532.69-539.27L-526.61-535.76L-530.8-527.1
C-534.37-519.98-533.51-518.67-520.54-511.18L-481.43-488.6
C-457.72-474.91-452.6-457.1-465.71-434.4
C-470.04-426.9-473.91-423.47-480.02-421.32L-502.29-413.64L-484.66-403.46L-484.9-401.17
C-495.12-393.29-504.04-384.39-511.46-374.35L-517.13-377.63L-512.8-385.13
C-508.12-393.24-509.07-394.87-522.45-402.59L-568.05-428.91
C-580.82-436.28-582.59-436.49-586.97-429.84L-592.84-421.07L-598.92-424.58
C-590.56-438.13-587.2-443.48-583.8-449.36
C-580.41-455.24-577.45-460.83-569.9-474.84L-563.82-471.33L-568.48-461.86
C-572.05-454.74-570.99-453.31-558.22-445.94L-515.26-421.14
C-506.14-415.88-488.49-423.52-481.35-435.88
C-473.51-449.46-478.5-464.22-494.1-473.23Z"/>
<path d="M-87.47,129.74H-79.74
C-79.74,141.67-78.34,152.67-75.07,165.31
C-101.04,172.8-112.98,174.98-131.7,174.98
C-192.07,174.98-232,140.79-232,88.8
C-232,65.17-223.99,44.11-209.15,29.83
C-193,13.68-167.73,4.32-140.59,4.32
C-123.97,4.32-107.83,7.36-76,16.25V55.56
C-76,62.81-75.77,63.28-73.43,64.22L-66.64,66.56L-67.58,72.41
C-88.41,71.94-89.11,71.94-96.36,71.94
C-103.15,71.94-104.55,71.94-124.91,72.41V65.39L-105.49,63.75
C-99.64,63.28-98,61.18-98,55.56V31.93
C-98,26.31-98.31,23.51-98.94,21.87
C-101.51,17.42-115.55,14.32-131,14.32
C-177.33,14.32-207,45.14-207,93.71
C-207,138.87-181.66,164.98-137.78,164.98
C-125.61,164.98-115.32,163.61-106.42,160.87
C-92.85,156.42-87.46,151.04-87.46,142.15Z"/>
<path d="M6.29,119
C-27.87,119-52,94.79-52,59.78
C-52,26.79-30.97,4.32-0.5,4.32
C35.54,4.32,61,29.36,61,64.46
C61,96.05,38.18,119,6.29,119Z
M2.07,111
C23.6,111,39,87.61,39,55.8
C39,28.89,27.26,12.32,8.63,12.32
C-14.3,12.32-30,34.67-30,67.73
C-30,95.81-18.68,111,2.07,111Z"/>
<path d="M166,111.26
C153.09,116.88,146.63,119,138.56,119
C132.24,119,126.63,117.52,120.78,114.3L100.19,103.54
C86.85,96.52,78,79.44,78,59.55
C78,40.83,84.39,25.39,95.97,16.03
C103.93,9.24,114.92,6.2,130.13,6.2
C134.81,6.2,140.19,7.14,141.36,8.07L166.93,29.83L166.17,8.3
C177.64,8.77,181.38,9,184.19,9
C186.06,9,189.34,9,194.25,8.77
C195.89,8.54,200.57,8.24,205.48,8V15.32L194.72,16.02
C186.76,16.49,186,18.13,186,32.87V177.01L183.96,178.88
C173.66,174.9,165.94,173.03,147.46,170.22V163.67H160.56
C164.77,163.67,166,161.1,166,154.08Z
M166,60.71
C166,45.5,165.59,43.16,162.9,37.78
C156.35,26.78,144.88,19.19,133.88,19.19
C113.29,19.19,98,39.22,98,67.26
C98,92.77,110.84,107.99,132.24,107.99
C141.13,107.99,150.49,104.86,158.68,99.08
C163.59,95.8,165.99,92.76,165.99,90.89Z"/>
<path d="M-128-158.2
C-128-169.43-116-161.1-116-158.2V-121.61
C-116-110.38-128-118.71-128-121.61Z
M-77.9-91.55
C-77.49-91.55-68-90.46-68-100.97V-158.21
C-68-169.44-56-161.11-56-158.21
C-55.96-158.21-56-123.07-56-100.97
C-56-90.46-48.09-89.74-48.09-80.68
C-48.09-75.61-50.99-70-56.37-70H-115.57
C-132.13-70-125.51-62.93-125.51-62.93
C-140-69.45-141.24-91.55-116.82-91.55Z"/>
<path d="M4-83.22
C4-69.82-9.02-70-9.02-70H-11.5
C-28.06-70-21.85-63.66-21.85-63.66
C-35.93-69.82-36.75-91.55-18.54-91.55
C-18.54-91.55-8-90.46-8-101.69V-158.2
C-8-169.79,4-161.1,4-158.2Z"/>
<path d="M29-158.2
C29-169.43,41-161.1,41-158.2V-121.61
C41-110.38,29-118.71,29-121.61Z
M79.1-91.55
C79.51-91.55,89-90.46,89-100.97V-158.21
C89-169.44,101-161.11,101-158.21
C101.04-158.21,101-123.07,101-100.97
C101-90.46,108.91-89.74,108.91-80.68
C108.91-75.61,106.01-70,100.63-70H41.43
C24.87-70,31.49-62.93,31.49-62.93
C17-69.45,15.76-91.55,40.18-91.55Z"/>
<path d="M140.94-105.68
C131.83-114.74,145.91-114.01,149.63-110.03
C154.6-105.32,160.81-99.89,160.81-94.09V-83.22
C160.81-69.82,147.98-70,147.98-70H145.5
C128.94-70,135.15-63.66,135.15-63.66
C121.07-69.82,120.25-91.55,138.46-91.55
C138.46-91.55,156.26-89.01,148.81-96.98
C148.81-96.98,143.84-102.41,140.94-105.67Z"/>
<path d="M26.79,398L27.53,399.95
C23.66,410.51,21.07,421.27,19.97,432.24H14.8V424.58
C14.8,416.3,13.51,415,1.33,415H-40.18
C-51.8,415-53.1,415.66-53.46,423.13L-53.99,432.65H-59.54
C-58.99,411.95-58.99,411.95-58.99,406.78
C-58.99,401.6-59.44,401.6-59.99,380.91H-53.99L-53.46,390.43
C-53.09,397.47-51.8,398.01-40.18,398.01Z
M68,407.61
C68,413.82,63.09,419,57.42,419
C52.07,419,48,413.71,48,407.81
C48,401.81,52.45,396,57.42,396
C62.59,396,68,401.7,68,407.61Z"/>
<path d="M-32.62,368.17
C-45.35,368.17-50.89,368.88-58.27,370.79
C-61.41,360.03-62.7,351.95-62.7,342.43
C-62.7,315.31-49.78,296-31.7,296
C-25.98,296-21.74,297.88-18.05,301.86
C-13.44,307.24-11.22,314.07-8.09,332.29
C-5.14,349.26-1.45,355,7.04,355
C16.27,355,20.99,347.7,20.99,334.98
C20.99,321.11,14.72,310.25,6.3,310.25H2.06V304.76
C12.76,304.55,17.19,304.35,22.91,303.72
C26.23,314.69,26.99,322.14,26.99,330.63
C26.99,354.64,17.04,369,0.77,369
C-8.09,369-14.36,364.56-18.23,355.27
C-20.44,349.68-23.4,338.71-26.16,324.63
C-28,315.32-31.88,311-38.89,311
C-48.85,311-55.69,321.51-55.69,336.43
C-55.69,351.54-49.3,361.75-40.18,361.75H-32.62Z"/>
<path d="M-367.19-182.24L-369.17-182.53
C-376.38-191.16-384.41-198.78-393.35-205.23L-390.77-209.7L-384.14-205.87
C-376.97-201.73-375.61-202.43-369.52-212.98L-348.76-248.93
C-342.95-259-342.84-260.43-348.75-264.26L-356.72-269.5L-353.95-274.29
C-336.3-263.46-336.3-263.46-331.82-260.87
C-327.34-258.28-327.34-258.28-309.13-248.41L-311.9-243.62L-320.42-247.9
C-326.7-251.1-327.88-250.29-333.69-240.23Z
M-395.92-151.53
C-401.3-154.63-403.56-161.48-400.79-166.27
C-398.11-170.9-391.06-172.37-385.86-169.37
C-380.66-166.37-378.22-159.42-380.89-154.79
C-383.47-150.32-390.9-148.64-395.92-151.53Z"/>
<path d="M-311.84-217.91
C-305.47-228.93-303.25-234.04-300.99-241.26
C-290.1-238.59-282.46-235.68-274.22-230.92
C-250.74-217.36-240.52-196.55-249.56-180.89
C-252.42-175.94-256.15-173.19-261.41-171.96
C-268.38-170.66-275.4-172.15-292.74-178.55
C-308.92-184.48-315.6-184.08-319.84-176.73
C-324.45-168.74-320.76-160.64-309.83-154.33
C-297.82-147.4-285.45-147.71-281.11-155.22L-278.99-158.9L-273.97-156
C-279.14-146.63-281.18-142.69-283.5-137.43
C-294.66-140.04-301.76-142.65-309.11-146.89
C-329.9-158.9-337.56-175.03-329.26-189.41
C-324.83-197.08-317.75-200.23-307.57-198.83
C-301.62-197.95-290.65-195.02-277.07-190.38
C-268.08-187.32-262.74-188.71-259.23-194.78
C-254.25-203.41-259.71-214.65-272.43-222
C-285.52-229.56-298.07-229.35-302.68-221.36L-306.46-214.81Z"/>
<path d="M300.6-143.16L299.36-141.59
C288.28-139.67,277.67-136.52,267.61-132L265.03-136.47L271.66-140.3
C278.83-144.44,278.9-145.97,272.81-156.52L252.05-192.47
C246.24-202.54,245.05-203.34,238.78-200.14L230.26-195.86L227.49-200.65
C245.69-210.52,245.69-210.52,250.18-213.11
C254.66-215.7,254.66-215.7,272.31-226.53L275.08-221.74L267.11-216.5
C261.2-212.66,261.31-211.23,267.12-201.17Z
M312.83-102.93
C307.45-99.83,300.39-101.29,297.63-106.08
C294.95-110.71,297.22-117.56,302.42-120.56
C307.62-123.56,314.86-122.2,317.53-117.57
C320.11-113.1,317.86-105.83,312.84-102.93Z"/>
<path d="M297.54-209.39
C291.17-220.41,287.87-224.9,282.75-230.46
C290.5-238.56,296.85-243.71,305.1-248.47
C328.58-262.03,351.71-260.47,360.75-244.81
C363.61-239.86,364.12-235.25,362.56-230.09
C360.21-223.4,355.4-218.07,341.19-206.25
C327.97-195.21,324.97-189.22,329.21-181.87
C333.82-173.88,342.68-173.03,353.62-179.34
C365.63-186.27,371.54-197.15,367.21-204.66L365.09-208.34L370.11-211.24
C375.64-202.08,378.03-198.34,381.43-193.7
C373.59-185.34,367.78-180.49,360.43-176.25
C339.64-164.24,321.83-165.68,313.53-180.06
C309.1-187.73,309.91-195.44,316.22-203.56
C319.95-208.27,327.98-216.31,338.78-225.75
C345.92-232.01,347.39-237.33,343.89-243.4
C338.91-252.03,326.44-252.92,313.71-245.58
C300.62-238.02,294.53-227.05,299.14-219.06L302.92-212.51Z"/>
</g>
</svg>